<?xml version="1.0" encoding="UTF-8"?>
<svg id="Layer_1" data-name="Layer 1" xmlns="http://www.w3.org/2000/svg" xmlns:xlink="http://www.w3.org/1999/xlink" viewBox="0 0 257.75 250.67">
  <defs>
    <style>
      .cls-1 {
        opacity: .11;
      }

      .cls-2 {
        opacity: .6;
      }

      .cls-2, .cls-3 {
        fill: #24126a;
      }

      .cls-4 {
        opacity: .51;
      }

      .cls-5 {
        fill: url(#_Áåçûìÿííûé_ãðàäèåíò_24);
      }

      .cls-6 {
        fill: url(#_Áåçûìÿííûé_ãðàäèåíò_24-2);
      }

      .cls-7 {
        fill: url(#_Áåçûìÿííûé_ãðàäèåíò_25);
      }

      .cls-7, .cls-8 {
        opacity: .42;
      }

      .cls-9 {
        fill: none;
      }

      .cls-10 {
        fill: url(#_Áåçûìÿííûé_ãðàäèåíò_3-3);
      }

      .cls-11 {
        fill: #2842a2;
      }

      .cls-12 {
        fill: url(#_Áåçûìÿííûé_ãðàäèåíò_3);
      }

      .cls-8 {
        fill: url(#_Áåçûìÿííûé_ãðàäèåíò_25-2);
      }

      .cls-13 {
        fill: url(#_Áåçûìÿííûé_ãðàäèåíò_424);
      }

      .cls-14 {
        fill: url(#_Áåçûìÿííûé_ãðàäèåíò_3-6);
      }

      .cls-15, .cls-16 {
        fill: #453c9e;
      }

      .cls-16 {
        opacity: .8;
      }

      .cls-17 {
        fill: url(#_Áåçûìÿííûé_ãðàäèåíò_3-5);
      }

      .cls-18 {
        fill: url(#_Áåçûìÿííûé_ãðàäèåíò_3-2);
      }

      .cls-19 {
        fill: #9198db;
      }

      .cls-20 {
        fill: #adb1f2;
      }

      .cls-21 {
        opacity: .32;
      }

      .cls-22 {
        fill: url(#_Áåçûìÿííûé_ãðàäèåíò_3-4);
      }

      .cls-23 {
        clip-path: url(#clippath);
      }

      .cls-24 {
        opacity: .5;
      }

      .cls-25 {
        fill: url(#_Áåçûìÿííûé_ãðàäèåíò_10);
        opacity: .96;
      }
    </style>
    <linearGradient id="_Áåçûìÿííûé_ãðàäèåíò_3" data-name="Áåçûìÿííûé ãðàäèåíò 3" x1="-93.66" y1="95.49" x2="37.1" y2="95.49" gradientTransform="translate(137.6) rotate(-180) scale(1 -1)" gradientUnits="userSpaceOnUse">
      <stop offset="0" stop-color="#c0bff6"/>
      <stop offset=".29" stop-color="#c4c3f6"/>
      <stop offset=".64" stop-color="#d2d2f9"/>
      <stop offset="1" stop-color="#e9e9fd"/>
    </linearGradient>
    <linearGradient id="_Áåçûìÿííûé_ãðàäèåíò_24" data-name="Áåçûìÿííûé ãðàäèåíò 24" x1="-93.66" y1="129.02" x2="-71.21" y2="129.02" gradientTransform="translate(137.6) rotate(-180) scale(1 -1)" gradientUnits="userSpaceOnUse">
      <stop offset="0" stop-color="#5761d7"/>
      <stop offset=".18" stop-color="#5b65d8"/>
      <stop offset=".39" stop-color="#6a72de"/>
      <stop offset=".61" stop-color="#8188e8"/>
      <stop offset=".85" stop-color="#a2a6f5"/>
      <stop offset="1" stop-color="#bcbeff"/>
    </linearGradient>
    <linearGradient id="_Áåçûìÿííûé_ãðàäèåíò_24-2" data-name="Áåçûìÿííûé ãðàäèåíò 24" x1="-76.15" y1="166.72" x2="108.54" y2="166.72" xlink:href="#_Áåçûìÿííûé_ãðàäèåíò_24"/>
    <linearGradient id="_Áåçûìÿííûé_ãðàäèåíò_3-2" data-name="Áåçûìÿííûé ãðàäèåíò 3" x1="-14.09" y1="160.56" x2="170.69" y2="160.56" xlink:href="#_Áåçûìÿííûé_ãðàäèåíò_3"/>
    <linearGradient id="_Áåçûìÿííûé_ãðàäèåíò_3-3" data-name="Áåçûìÿííûé ãðàäèåíò 3" x1="17.2" y1="171.05" x2="64.5" y2="171.05" xlink:href="#_Áåçûìÿííûé_ãðàäèåíò_3"/>
    <clipPath id="clippath">
      <polygon id="SVGID" class="cls-9" points="116.28 24.65 225.39 87.65 211.86 167.42 102.82 104.47 116.28 24.65"/>
    </clipPath>
    <linearGradient id="_Áåçûìÿííûé_ãðàäèåíò_3-4" data-name="Áåçûìÿííûé ãðàäèåíò 3" x1="-84.69" y1="119.61" x2="100.09" y2="119.61" xlink:href="#_Áåçûìÿííûé_ãðàäèåíò_3"/>
    <linearGradient id="_Áåçûìÿííûé_ãðàäèåíò_3-5" data-name="Áåçûìÿííûé ãðàäèåíò 3" x1="-96.85" y1="106.04" x2="-49.55" y2="106.04" xlink:href="#_Áåçûìÿííûé_ãðàäèåíò_3"/>
    <radialGradient id="_Áåçûìÿííûé_ãðàäèåíò_25" data-name="Áåçûìÿííûé ãðàäèåíò 25" cx="-22.32" cy="143.39" fx="-22.32" fy="143.39" r="52.97" gradientTransform="translate(137.6) rotate(-180) scale(1 -1)" gradientUnits="userSpaceOnUse">
      <stop offset="0" stop-color="#2b237c"/>
      <stop offset="1" stop-color="#180d5b"/>
    </radialGradient>
    <radialGradient id="_Áåçûìÿííûé_ãðàäèåíò_25-2" data-name="Áåçûìÿííûé ãðàäèåíò 25" cx="-33.91" cy="119.56" fx="-33.91" fy="119.56" r="40.55" xlink:href="#_Áåçûìÿííûé_ãðàäèåíò_25"/>
    <linearGradient id="_Áåçûìÿííûé_ãðàäèåíò_424" data-name="Áåçûìÿííûé ãðàäèåíò 424" x1="-48.51" y1="131.27" x2="-12.79" y2="66.95" gradientTransform="translate(137.6) rotate(-180) scale(1 -1)" gradientUnits="userSpaceOnUse">
      <stop offset="0" stop-color="#5761d7"/>
      <stop offset=".04" stop-color="#5b65d8"/>
      <stop offset=".09" stop-color="#6a72de"/>
      <stop offset=".14" stop-color="#8188e8"/>
      <stop offset=".19" stop-color="#a2a6f5"/>
      <stop offset=".22" stop-color="#bcbeff"/>
    </linearGradient>
    <linearGradient id="_Áåçûìÿííûé_ãðàäèåíò_3-6" data-name="Áåçûìÿííûé ãðàäèåíò 3" x1="-4.63" y1="131.49" x2="-28.4" y2="85.02" xlink:href="#_Áåçûìÿííûé_ãðàäèåíò_3"/>
    <linearGradient id="_Áåçûìÿííûé_ãðàäèåíò_10" data-name="Áåçûìÿííûé ãðàäèåíò 10" x1="59.63" y1="215.04" x2="-15.93" y2="81.15" gradientTransform="translate(137.6) rotate(-180) scale(1 -1)" gradientUnits="userSpaceOnUse">
      <stop offset="0" stop-color="#c0bff6"/>
      <stop offset=".08" stop-color="#c2c1f6"/>
      <stop offset=".13" stop-color="#cbcbf8"/>
      <stop offset=".18" stop-color="#dbdafa"/>
      <stop offset=".21" stop-color="#e9e9fd"/>
      <stop offset=".26" stop-color="#d7d7fa"/>
      <stop offset=".32" stop-color="#cac9f7"/>
      <stop offset=".39" stop-color="#c2c1f6"/>
      <stop offset=".51" stop-color="#c0bff6"/>
      <stop offset=".62" stop-color="#cfcff8"/>
      <stop offset=".75" stop-color="#e9e9fd"/>
      <stop offset="1" stop-color="#c0bff6"/>
    </linearGradient>
  </defs>
  <g>
    <g class="cls-24">
      <path class="cls-3" d="M97.23,130.5l105.99,61.19c.92.53.92,1.86,0,2.39l-58.85,33.98c-2.67,1.54-5.97,1.54-8.64,0l-101.67-58.7c-.92-.53-.92-1.86,0-2.39l63.17-36.47Z"/>
    </g>
    <g>
      <g>
        <path class="cls-12" d="M100.52,103.62l14.16-84.03-1.14-.48,1.71-.98h0c.33-.21.8-.2,1.32.1l113.2,65.35c.93.54,1.63,1.91,1.47,2.88l-14.28,84.7c-.07.44-.29.73-.6.86h0s-1.67.97-1.67.97l-.29-1.56.1.03-112.51-64.96c-.93-.54-1.63-1.91-1.47-2.88Z"/>
        <path class="cls-5" d="M229.14,85.88l1.86-.82c.21.48.31.98.24,1.4l-14.28,84.7c-.07.44-.29.73-.6.86h0s-1.67.97-1.67.97l-.29-1.56.1.03-5.69-3.29,20.33-82.29Z"/>
        <path class="cls-3" d="M100.22,107.51l113.2,65.35c.87.5,1.62.21,1.78-.69l14.28-84.7c.16-.96-.54-2.34-1.47-2.88L114.8,19.25c-.87-.5-1.62-.21-1.78.69l-14.28,84.7c-.16.96.54,2.34,1.47,2.88Z"/>
        <g class="cls-4">
          <polygon class="cls-15" points="116.28 24.65 225.39 87.65 211.86 167.42 102.82 104.47 116.28 24.65"/>
        </g>
      </g>
      <g>
        <path class="cls-6" d="M29.06,147.61l6.18,3.23,61.94-35.76c1.04-.6,2.85-.52,4.04.17l106.84,61.68c1.02-.57,5.68-2.81,5.68-2.81l-2.26,5.89s0,0,0,0c-.09.26-.29.51-.63.7l-65.24,37.67c-1.04.6-2.85.52-4.04-.17l-109.33-63.12c-.49-.28-.79-.63-.92-.98h0s-2.25-6.49-2.25-6.49Z"/>
        <path class="cls-18" d="M30.02,148.63l112.05,64.69c1.23.71,3.08.78,4.14.17l66.86-38.6c1.06-.61.93-1.68-.3-2.39l-112.05-64.69c-1.23-.71-3.08-.78-4.14-.17l-66.86,38.6c-1.06.61-.93,1.68.3,2.39Z"/>
        <path class="cls-11" d="M175.86,199.33v-1.23c0-.12-.07-.17-.16-.12l-4.33,2.5c-.09.05-.16.19-.16.3v1.23c0,.12.07.17.16.12l4.33-2.5c.09-.05.16-.19.16-.3Z"/>
        <path class="cls-11" d="M169.38,203.07v-1.23c0-.12-.07-.17-.16-.12l-4.33,2.5c-.09.05-.16.19-.16.3v1.23c0,.12.07.17.16.12l4.33-2.5c.09-.05.16-.19.16-.3Z"/>
        <path class="cls-20" d="M195.64,171.27l-93.11-53.76c-.62-.36-1.39-.36-2.01,0l-33.16,19.18c-.48.28-.48.96,0,1.24l93.07,53.73c.62.36,1.38.36,2,0l33.2-19.16c.48-.27.48-.96,0-1.24Z"/>
        <path class="cls-19" d="M195.64,172.51l-.33.19-92.78-53.56c-.62-.36-1.39-.36-2.01,0l-32.82,18.99-.33-.19c-.48-.27-.48-.96,0-1.24l33.16-19.18c.62-.36,1.39-.36,2.01,0l93.11,53.76c.48.28.48.96,0,1.24Z"/>
        <g>
          <polygon class="cls-3" points="98.02 122.37 178.9 169.07 182.5 166.99 101.62 120.3 98.02 122.37"/>
          <polygon class="cls-3" points="89.2 127.47 165.07 171.26 168.66 169.19 92.8 125.39 89.2 127.47"/>
          <polygon class="cls-3" points="83.46 130.78 172.78 182.35 176.38 180.27 87.06 128.7 83.46 130.78"/>
          <polygon class="cls-3" points="77.72 134.1 167.04 185.66 170.63 183.59 81.32 132.02 77.72 134.1"/>
          <polygon class="cls-3" points="71.98 137.41 161.3 188.98 164.89 186.9 75.57 135.33 71.98 137.41"/>
          <polygon class="cls-3" points="183.79 171.89 187.38 173.97 190.98 171.89 187.38 169.82 183.79 171.89"/>
          <polygon class="cls-3" points="171.1 174.75 178.57 179.06 182.16 176.98 174.7 172.67 171.1 174.75"/>
        </g>
        <path class="cls-10" d="M98.94,184.28l-25.11-14.49c-.98-.57-.98-1.49,0-2.05l17.17-9.91c.98-.57,2.57-.57,3.55,0l25.11,14.49c.98.57.98,1.49,0,2.05l-17.17,9.91c-.98.57-2.57.57-3.55,0Z"/>
        <path class="cls-19" d="M119.66,173.16l-25.11-14.49c-.98-.57-2.57-.57-3.55,0l-17.17,9.91c-.3.17-.5.38-.62.61-.26-.5-.06-1.05.62-1.45l17.17-9.91c.98-.57,2.57-.57,3.55,0l25.11,14.49c.68.39.88.95.62,1.45-.12-.22-.31-.43-.62-.61Z"/>
      </g>
    </g>
    <g class="cls-1">
      <g class="cls-23">
        <g>
          <path class="cls-22" d="M100.62,107.67l112.05,64.69c1.23.71,3.08.78,4.14.17l66.86-38.6c1.06-.61.93-1.68-.3-2.39l-112.05-64.69c-1.23-.71-3.08-.78-4.14-.17l-66.86,38.6c-1.06.61-.93,1.68.3,2.39Z"/>
          <path class="cls-17" d="M213,119.27l-25.11-14.49c-.98-.57-.98-1.48,0-2.05l17.17-9.91c.98-.57,2.57-.57,3.55,0l25.11,14.49c.98.57.98,1.49,0,2.05l-17.17,9.91c-.98.57-2.57.57-3.55,0Z"/>
          <path class="cls-19" d="M233.72,108.15l-25.11-14.49c-.98-.57-2.57-.57-3.55,0l-17.17,9.91c-.3.17-.5.38-.62.61-.26-.5-.06-1.05.62-1.45l17.17-9.91c.98-.57,2.57-.57,3.55,0l25.11,14.49c.68.39.88.95.62,1.45-.12-.22-.31-.43-.62-.61Z"/>
          <g>
            <path class="cls-20" d="M244.75,141.92l-93.11-53.76c-.62-.36-1.39-.36-2.01,0l-33.16,19.18c-.48.28-.48.96,0,1.24l93.07,53.73c.62.36,1.38.36,2,0l33.2-19.16c.48-.28.48-.96,0-1.24Z"/>
            <path class="cls-19" d="M244.75,143.16l-.33.19-92.78-53.56c-.62-.36-1.39-.36-2.01,0l-32.82,18.99-.33-.19c-.48-.28-.48-.96,0-1.24l33.16-19.18c.62-.36,1.39-.36,2.01,0l93.11,53.76c.48.28.48.96,0,1.24Z"/>
            <g>
              <polygon class="cls-3" points="125.16 106.04 206.27 152.87 203.06 154.73 121.94 107.9 125.16 106.04"/>
              <polygon class="cls-3" points="133.7 101.11 210.8 145.62 207.59 147.48 130.49 102.96 133.7 101.11"/>
              <polygon class="cls-3" points="216.56 148.94 223.76 153.1 220.55 154.96 213.35 150.8 216.56 148.94"/>
              <polygon class="cls-3" points="210.2 155.14 215.21 158.04 212 159.89 206.99 157 210.2 155.14"/>
              <polygon class="cls-3" points="139.06 98.02 229.12 150.01 225.9 151.86 135.85 99.87 139.06 98.02"/>
              <polygon class="cls-3" points="144.41 94.92 234.47 146.92 231.26 148.77 141.2 96.78 144.41 94.92"/>
              <polygon class="cls-3" points="149.77 91.83 239.83 143.83 236.61 145.68 146.56 93.69 149.77 91.83"/>
            </g>
          </g>
        </g>
      </g>
    </g>
  </g>
  <polygon class="cls-7" points="152.49 166.48 176.63 151.63 122.36 120.3 96.75 137.51 152.49 166.48"/>
  <polygon class="cls-8" points="176.63 151.63 182.16 116.7 131.23 87.49 131.23 125.35 176.63 151.63"/>
  <g>
    <g>
      <path class="cls-13" d="M125.9,70.52l5.39-3.1h0c.07-.04.16-.04.27.02l67.51,38.98c.22.13.4.47.4.76v12.74c0,.14-.04.24-.11.3h0s0,0,0,0c0,0-.01,0-.02,0l-5.44,3.13-.04-6.16-62.3-35.97c-.22-.13-.4-.47-.4-.76v-4.37l-5.26-5.59Z"/>
      <path class="cls-14" d="M126.14,84.36l67.51,38.98c.22.13.4,0,.4-.3v-12.74c0-.29-.18-.64-.4-.76l-67.51-38.98c-.22-.13-.4,0-.4.3v12.74c0,.29.18.64.4.76Z"/>
      <path class="cls-2" d="M135.46,81.78l52.57,30.91c-1.62,1.4-3.16,3-4.57,4.76l-52.96-30.57c1.52-1.9,3.19-3.62,4.96-5.09Z"/>
      <path class="cls-3" d="M128.07,80.53l63.66,36.75c.15.09.27,0,.27-.21v-3.2c0-.2-.12-.43-.27-.52l-63.66-36.75c-.15-.09-.27,0-.27.21v3.2c0,.2.12.43.27.52Z"/>
      <path class="cls-15" d="M128.07,76.61l1.29.75v1.73c0,.2.12.43.27.52l62.37,36.01v1.47c0,.2-.12.29-.27.21l-63.66-36.75c-.15-.09-.27-.32-.27-.52v-3.2c0-.2.12-.29.27-.21Z"/>
    </g>
    <path class="cls-25" d="M92.31,218.44l-52.96-30.58h0c6.83-3.94,12.59-12.58,14.35-20.83.71-3.35,2.76-6.25,5.72-7.96l40.02-23.1c11.15-6.43,18.37-18.02,19.13-30.87.64-10.85,8.84-21.52,15.21-25.19h0l52.96,30.58h0c-6.27,3.62-13.17,13.74-13.96,24.4-.95,12.85-7.93,24.48-19.09,30.92l-41.3,23.84c-2.96,1.71-5.01,4.62-5.72,7.96-1.76,8.26-7.52,16.89-14.35,20.83h0Z"/>
    <path class="cls-16" d="M133.78,79.9l52.96,30.58c-.42.25-.84.51-1.26.79h0s-52.95-30.58-52.95-30.58c.42-.27.83-.54,1.26-.78Z"/>
  </g>
  <g class="cls-21">
    <polygon class="cls-15" points="153.69 116.07 162.98 121.45 163.06 120.38 153.78 115.02 153.69 116.07"/>
    <polygon class="cls-15" points="149.01 113.35 152.29 115.25 152.39 114.21 149.11 112.31 149.01 113.35"/>
    <polygon class="cls-15" points="145.42 111.27 147.63 112.55 147.73 111.51 145.52 110.24 145.42 111.27"/>
    <polygon class="cls-15" points="157.7 120.93 162.81 123.91 162.88 122.83 157.79 119.87 157.7 120.93"/>
    <polygon class="cls-15" points="150.13 116.52 156.28 120.11 156.37 119.04 150.23 115.47 150.13 116.52"/>
    <polygon class="cls-15" points="146.51 114.41 148.73 115.71 148.83 114.66 146.61 113.37 146.51 114.41"/>
    <polygon class="cls-15" points="143.1 112.43 145.3 113.71 145.41 112.67 143.21 111.39 143.1 112.43"/>
    <polygon class="cls-15" points="158.92 124.22 162.63 126.39 162.71 125.3 159 123.14 158.92 124.22"/>
    <polygon class="cls-15" points="156.23 122.64 157.49 123.38 157.57 122.3 156.32 121.57 156.23 122.64"/>
    <polygon class="cls-15" points="152.54 120.48 154.81 121.81 154.9 120.74 152.63 119.41 152.54 120.48"/>
    <polygon class="cls-15" points="148.85 120.88 162.46 128.9 162.53 127.8 148.95 119.82 148.85 120.88"/>
    <polygon class="cls-15" points="144.16 118.12 147.45 120.06 147.55 118.99 144.27 117.07 144.16 118.12"/>
    <polygon class="cls-15" points="158.53 129.2 162.28 131.42 162.36 130.31 158.62 128.1 158.53 129.2"/>
    <polygon class="cls-15" points="149.87 124.07 157.09 128.35 157.18 127.25 149.97 123 149.87 124.07"/>
    <polygon class="cls-15" points="146.21 121.91 148.46 123.24 148.56 122.16 146.32 120.84 146.21 121.91"/>
    <polygon class="cls-15" points="154.44 129.41 162.1 133.97 162.18 132.85 154.53 128.31 154.44 129.41"/>
    <polygon class="cls-15" points="147.57 125.32 153.01 128.55 153.1 127.46 147.68 124.24 147.57 125.32"/>
    <polygon class="cls-15" points="142.55 122.33 146.16 124.48 146.27 123.4 142.66 121.26 142.55 122.33"/>
    <polygon class="cls-15" points="159.31 134.97 161.92 136.54 162 135.41 159.39 133.85 159.31 134.97"/>
    <polygon class="cls-15" points="154.43 132.05 157.85 134.1 157.94 132.98 154.52 130.94 154.43 132.05"/>
    <polygon class="cls-15" points="147.56 127.94 152.99 131.19 153.09 130.09 147.67 126.85 147.56 127.94"/>
    <polygon class="cls-15" points="153.75 134.32 161.74 139.13 161.82 137.99 153.85 133.2 153.75 134.32"/>
    <polygon class="cls-15" points="144.99 129.05 152.31 133.45 152.4 132.34 145.1 127.95 144.99 129.05"/>
    <polygon class="cls-15" points="141.32 126.84 143.57 128.19 143.69 127.1 141.43 125.75 141.32 126.84"/>
    <polygon class="cls-15" points="137.83 124.74 140.06 126.08 140.18 125 137.95 123.66 137.83 124.74"/>
    <polygon class="cls-15" points="156.73 138.82 161.56 141.74 161.64 140.59 156.82 137.69 156.73 138.82"/>
    <polygon class="cls-15" points="135.48 105.51 129.44 102.01 129.57 101.02 135.6 104.5 135.48 105.51"/>
    <polygon class="cls-15" points="133.9 107.06 129.14 104.29 129.27 103.29 134.02 106.05 133.9 107.06"/>
    <polygon class="cls-15" points="132.28 108.61 128.83 106.59 128.97 105.58 132.41 107.6 132.28 108.61"/>
    <polygon class="cls-15" points="133.57 111.88 128.53 108.91 128.66 107.89 133.7 110.85 133.57 111.88"/>
    <polygon class="cls-15" points="131.69 113.31 128.22 111.25 128.35 110.23 131.82 112.27 131.69 113.31"/>
    <polygon class="cls-15" points="132.34 116.25 127.91 113.61 128.04 112.58 132.46 115.2 132.34 116.25"/>
    <polygon class="cls-15" points="130.01 117.43 127.59 115.99 127.73 114.94 130.14 116.38 130.01 117.43"/>
    <polygon class="cls-15" points="131.99 121.22 127.28 118.38 127.41 117.33 132.12 120.16 131.99 121.22"/>
    <polygon class="cls-15" points="131.43 123.51 126.96 120.8 127.1 119.74 131.57 122.44 131.43 123.51"/>
    <polygon class="cls-15" points="153.24 136.71 155.27 137.94 155.36 136.81 153.34 135.58 153.24 136.71"/>
    <polygon class="cls-15" points="147.28 133.1 151.79 135.83 151.89 134.71 147.39 131.99 147.28 133.1"/>
  </g>
</svg>